<?xml version="1.0" encoding="utf-8" ?>
<svg baseProfile="full" height="1984" version="1.1" width="1984" xmlns="http://www.w3.org/2000/svg" xmlns:ev="http://www.w3.org/2001/xml-events" xmlns:xlink="http://www.w3.org/1999/xlink"><defs /><g class="svg-layer" id="layer_0"><path d="M 809.00,0.00 L 842.00,90.00 L 693.00,113.00 L 686.00,109.00 L 682.00,117.00 L 572.00,162.00 L 493.00,225.00 L 484.00,216.00 L 490.00,229.00 L 438.00,297.00 L 410.00,351.00 L 372.00,299.00 L 409.00,357.00 L 382.00,456.00 L 353.00,410.00 L 378.00,450.00 L 380.00,490.00 L 371.00,554.00 L 355.00,543.00 L 368.00,565.00 L 352.00,624.00 L 348.00,620.00 L 352.00,634.00 L 320.00,741.00 L 297.00,795.00 L 284.00,798.00 L 291.00,808.00 L 260.00,854.00 L 220.00,898.00 L 163.00,944.00 L 166.00,951.00 L 145.00,991.00 L 136.00,1027.00 L 135.00,1147.00 L 129.00,1181.00 L 120.00,1183.00 L 127.00,1189.00 L 111.00,1224.00 L 65.00,1281.00 L 0.00,1320.00 L 0.00,1892.00 L 65.00,1764.00 L 135.00,1677.00 L 215.00,1609.00 L 320.00,1550.00 L 463.00,1511.00 L 566.00,1464.00 L 655.00,1537.00 L 731.00,1611.00 L 655.00,1535.00 L 567.00,1465.00 L 649.00,1385.00 L 695.00,1275.00 L 706.00,1203.00 L 706.00,1133.00 L 692.00,1035.00 L 714.00,1020.00 L 726.00,984.00 L 732.00,986.00 L 704.00,855.00 L 736.00,843.00 L 755.00,826.00 L 790.00,759.00 L 797.00,778.00 L 793.00,745.00 L 807.00,669.00 L 834.00,608.00 L 979.00,478.00 L 1043.00,379.00 L 1135.00,390.00 L 1186.00,408.00 L 1174.00,440.00 L 1155.00,458.00 L 1045.00,488.00 L 1016.00,507.00 L 945.00,581.00 L 900.00,602.00 L 912.00,662.00 L 939.00,734.00 L 996.00,824.00 L 937.00,724.00 L 994.00,738.00 L 1057.00,731.00 L 1101.00,706.00 L 1122.00,667.00 L 1103.00,701.00 L 1057.00,729.00 L 1025.00,736.00 L 964.00,730.00 L 935.00,717.00 L 907.00,637.00 L 905.00,601.00 L 949.00,586.00 L 1028.00,543.00 L 1086.00,528.00 L 1255.00,552.00 L 1274.00,577.00 L 1262.00,557.00 L 1277.00,511.00 L 1268.00,479.00 L 1276.00,520.00 L 1257.00,554.00 L 1261.00,516.00 L 1242.00,493.00 L 1201.00,483.00 L 1101.00,476.00 L 1160.00,457.00 L 1176.00,441.00 L 1190.00,408.00 L 1162.00,396.00 L 1156.00,383.00 L 1155.00,394.00 L 1044.00,375.00 L 1076.00,307.00 L 1108.00,265.00 L 1152.00,238.00 L 1195.00,232.00 L 1225.00,239.00 L 1176.00,274.00 L 1229.00,239.00 L 1267.00,262.00 L 1329.00,327.00 L 1419.00,471.00 L 1424.00,490.00 L 1387.00,490.00 L 1365.00,504.00 L 1343.00,557.00 L 1402.00,539.00 L 1428.00,540.00 L 1445.00,554.00 L 1439.00,586.00 L 1419.00,572.00 L 1394.00,570.00 L 1353.00,591.00 L 1315.00,622.00 L 1310.00,619.00 L 1322.00,631.00 L 1342.00,608.00 L 1374.00,591.00 L 1378.00,633.00 L 1396.00,648.00 L 1416.00,651.00 L 1418.00,658.00 L 1411.00,660.00 L 1417.00,666.00 L 1347.00,655.00 L 1323.00,634.00 L 1356.00,666.00 L 1349.00,659.00 L 1354.00,656.00 L 1419.00,671.00 L 1438.00,722.00 L 1431.00,726.00 L 1450.00,741.00 L 1468.00,781.00 L 1473.00,812.00 L 1469.00,939.00 L 1450.00,1103.00 L 1422.00,1088.00 L 1390.00,1085.00 L 1419.00,1088.00 L 1444.00,1102.00 L 1453.00,1124.00 L 1450.00,1164.00 L 1436.00,1196.00 L 1416.00,1211.00 L 1310.00,1207.00 L 1272.00,1194.00 L 1232.00,1169.00 L 1209.00,1145.00 L 1192.00,1112.00 L 1186.00,1040.00 L 1213.00,853.00 L 1240.00,810.00 L 1249.00,844.00 L 1262.00,859.00 L 1278.00,865.00 L 1309.00,859.00 L 1268.00,861.00 L 1243.00,827.00 L 1247.00,788.00 L 1290.00,746.00 L 1300.00,722.00 L 1296.00,690.00 L 1268.00,619.00 L 1269.00,585.00 L 1266.00,618.00 L 1295.00,691.00 L 1298.00,726.00 L 1289.00,745.00 L 1252.00,778.00 L 1229.00,828.00 L 1205.00,858.00 L 1154.00,879.00 L 1092.00,879.00 L 1039.00,861.00 L 998.00,827.00 L 1071.00,918.00 L 1138.00,1043.00 L 1124.00,1036.00 L 1143.00,1053.00 L 1176.00,1109.00 L 1213.00,1153.00 L 1255.00,1186.00 L 1298.00,1205.00 L 1332.00,1213.00 L 1409.00,1215.00 L 1343.00,1234.00 L 1210.00,1234.00 L 1207.00,1254.00 L 1133.00,1260.00 L 1069.00,1284.00 L 997.00,1342.00 L 1046.00,1299.00 L 1091.00,1275.00 L 1156.00,1257.00 L 1206.00,1257.00 L 1172.00,1359.00 L 1086.00,1680.00 L 1084.00,1783.00 L 1109.00,1983.00 L 1086.00,1798.00 L 1083.00,1720.00 L 1090.00,1664.00 L 1114.00,1591.00 L 1159.00,1761.00 L 1192.00,1983.00 L 1461.00,1983.00 L 1422.00,1918.00 L 1599.00,1676.00 L 1741.00,1674.00 L 1495.00,1983.00 L 1983.00,1387.00 L 1747.00,1670.00 L 1540.00,1670.00 L 1596.00,1675.00 L 1421.00,1914.00 L 1348.00,1865.00 L 1322.00,1839.00 L 1524.00,1502.00 L 1765.00,1078.00 L 1920.00,1076.00 L 1916.00,1117.00 L 1900.00,1147.00 L 1877.00,1166.00 L 1799.00,1184.00 L 1769.00,1210.00 L 1758.00,1238.00 L 1757.00,1266.00 L 1778.00,1329.00 L 1774.00,1376.00 L 1751.00,1401.00 L 1686.00,1421.00 L 1663.00,1440.00 L 1651.00,1471.00 L 1642.00,1535.00 L 1625.00,1554.00 L 1581.00,1573.00 L 1556.00,1593.00 L 1543.00,1616.00 L 1539.00,1668.00 L 1543.00,1624.00 L 1558.00,1594.00 L 1578.00,1577.00 L 1623.00,1559.00 L 1645.00,1535.00 L 1653.00,1466.00 L 1664.00,1442.00 L 1685.00,1424.00 L 1749.00,1405.00 L 1776.00,1377.00 L 1782.00,1342.00 L 1758.00,1262.00 L 1762.00,1230.00 L 1774.00,1207.00 L 1802.00,1185.00 L 1864.00,1174.00 L 1889.00,1161.00 L 1912.00,1132.00 L 1925.00,1075.00 L 1983.00,1074.00 L 1720.00,1072.00 L 1726.00,1038.00 L 1746.00,994.00 L 1773.00,969.00 L 1834.00,938.00 L 1866.00,906.00 L 1893.00,861.00 L 1923.00,778.00 L 1947.00,747.00 L 1983.00,725.00 L 1974.00,723.00 L 1983.00,702.00 L 1968.00,728.00 L 1923.00,772.00 L 1894.00,853.00 L 1867.00,902.00 L 1829.00,939.00 L 1759.00,976.00 L 1736.00,1006.00 L 1718.00,1074.00 L 1764.00,1077.00 L 1323.00,1832.00 L 1317.00,1832.00 L 1305.00,1799.00 L 1305.00,1720.00 L 1295.00,1682.00 L 1921.00,512.00 L 1930.00,507.00 L 1983.00,520.00 L 1915.00,501.00 L 1881.00,499.00 L 1813.00,525.00 L 1783.00,528.00 L 1726.00,491.00 L 1698.00,488.00 L 1658.00,512.00 L 1640.00,547.00 L 1629.00,496.00 L 1636.00,433.00 L 1658.00,391.00 L 1691.00,367.00 L 1780.00,345.00 L 1819.00,297.00 L 1853.00,209.00 L 1880.00,167.00 L 1930.00,136.00 L 1983.00,133.00 L 1983.00,0.00 L 1884.00,0.00 L 1892.00,36.00 L 1934.00,50.00 L 1895.00,60.00 L 1881.00,98.00 L 1873.00,62.00 L 1836.00,50.00 L 1868.00,39.00 L 1881.00,0.00 L 1757.00,0.00 L 1475.00,839.00 L 1468.00,775.00 L 1428.00,699.00 L 1419.00,661.00 L 1434.00,629.00 L 1448.00,568.00 L 1459.00,477.00 L 1600.00,0.00 L 1440.00,0.00 L 1404.00,147.00 L 1395.00,150.00 L 1444.00,217.00 L 1471.00,229.00 L 1529.00,228.00 L 1499.00,336.00 L 1395.00,349.00 L 1379.00,278.00 L 1355.00,219.00 L 1320.00,166.00 L 1270.00,122.00 L 1217.00,96.00 L 1171.00,84.00 L 986.00,80.00 L 984.00,0.00 Z" fill="rgb(17,7,37)" shape-rendering="crispEdges" stroke="none" style="pointer-events: visiblePainted;" /></g><g class="svg-layer" id="layer_1"><path d="M 1982.00,521.00 L 1959.00,518.00 L 1928.00,508.00 L 1923.00,512.00 L 1547.00,1218.00 L 1301.00,1671.00 L 1297.00,1684.00 L 1303.00,1699.00 L 1306.00,1717.00 L 1306.00,1797.00 L 1311.00,1816.00 L 1319.00,1832.00 L 1347.00,1791.00 L 1527.00,1486.00 L 1762.00,1078.00 L 1761.00,1076.00 L 1718.00,1076.00 L 1716.00,1074.00 L 1723.00,1034.00 L 1732.00,1010.00 L 1740.00,996.00 L 1766.00,969.00 L 1826.00,939.00 L 1844.00,925.00 L 1861.00,907.00 L 1890.00,859.00 L 1912.00,792.00 L 1922.00,771.00 L 1942.00,747.00 L 1966.00,728.00 L 1983.00,700.00 Z" fill="rgb(116,73,141)" shape-rendering="crispEdges" stroke="none" style="pointer-events: visiblePainted;" /></g><g class="svg-layer" id="layer_2"><path d="M 0.00,1895.00 L 0.00,1983.00 L 637.00,1983.00 L 605.00,1938.00 L 553.00,1873.00 L 463.00,1773.00 L 383.00,1696.00 L 316.00,1640.00 L 250.00,1589.00 L 208.00,1616.00 L 168.00,1648.00 L 128.00,1687.00 L 103.00,1716.00 L 75.00,1753.00 L 45.00,1800.00 L 15.00,1858.00 Z" fill="rgb(224,66,97)" shape-rendering="crispEdges" stroke="none" style="pointer-events: visiblePainted;" /></g><g class="svg-layer" id="layer_3"><path d="M 0.00,0.00 L 0.00,162.00 L 20.00,158.00 L 49.00,158.00 L 79.00,164.00 L 79.00,167.00 L 75.00,167.00 L 87.00,171.00 L 79.00,168.00 L 84.00,166.00 L 107.00,177.00 L 108.00,179.00 L 104.00,180.00 L 96.00,175.00 L 110.00,184.00 L 113.00,182.00 L 115.00,185.00 L 112.00,185.00 L 126.00,197.00 L 143.00,218.00 L 145.00,217.00 L 148.00,220.00 L 147.00,223.00 L 144.00,221.00 L 161.00,252.00 L 178.00,294.00 L 172.00,281.00 L 172.00,277.00 L 175.00,278.00 L 189.00,313.00 L 203.00,334.00 L 202.00,338.00 L 196.00,331.00 L 181.00,303.00 L 206.00,345.00 L 224.00,363.00 L 239.00,373.00 L 224.00,363.00 L 206.00,344.00 L 209.00,343.00 L 224.00,359.00 L 254.00,377.00 L 288.00,386.00 L 316.00,389.00 L 339.00,397.00 L 338.00,401.00 L 330.00,397.00 L 348.00,408.00 L 350.00,406.00 L 352.00,408.00 L 350.00,410.00 L 360.00,420.00 L 370.00,436.00 L 362.00,422.00 L 352.00,412.00 L 354.00,409.00 L 365.00,420.00 L 382.00,455.00 L 393.00,401.00 L 408.00,357.00 L 402.00,346.00 L 406.00,345.00 L 410.00,350.00 L 437.00,297.00 L 469.00,251.00 L 489.00,229.00 L 488.00,221.00 L 491.00,224.00 L 496.00,222.00 L 537.00,185.00 L 584.00,154.00 L 641.00,128.00 L 685.00,114.00 L 686.00,108.00 L 693.00,112.00 L 754.00,100.00 L 842.00,89.00 L 808.00,0.00 L 357.00,0.00 L 367.00,15.00 L 400.00,19.00 L 447.00,20.00 L 522.00,8.00 L 559.00,8.00 L 580.00,12.00 L 605.00,23.00 L 600.00,25.00 L 595.00,21.00 L 575.00,14.00 L 559.00,12.00 L 528.00,12.00 L 447.00,24.00 L 416.00,24.00 L 368.00,19.00 L 368.00,24.00 L 378.00,38.00 L 378.00,43.00 L 361.00,19.00 L 351.00,0.00 Z" fill="rgb(16,74,115)" shape-rendering="crispEdges" stroke="none" style="pointer-events: visiblePainted;" /></g><g class="svg-layer" id="layer_4"><path d="M 728.00,984.00 L 726.00,999.00 L 718.00,1017.00 L 708.00,1027.00 L 694.00,1035.00 L 708.00,1135.00 L 708.00,1201.00 L 702.00,1252.00 L 685.00,1314.00 L 674.00,1341.00 L 650.00,1383.00 L 717.00,1443.00 L 773.00,1500.00 L 816.00,1548.00 L 855.00,1546.00 L 887.00,1534.00 L 914.00,1511.00 L 933.00,1479.00 L 951.00,1418.00 L 963.00,1389.00 L 978.00,1364.00 L 998.00,1338.00 L 1026.00,1311.00 L 1064.00,1285.00 L 1112.00,1264.00 L 1163.00,1253.00 L 1204.00,1253.00 L 1208.00,1247.00 L 1210.00,1236.00 L 1161.00,1233.00 L 1099.00,1225.00 L 1032.00,1210.00 L 968.00,1188.00 L 918.00,1164.00 L 888.00,1146.00 L 852.00,1120.00 L 804.00,1078.00 L 773.00,1045.00 L 755.00,1022.00 L 734.00,989.00 Z" fill="rgb(224,66,97)" shape-rendering="crispEdges" stroke="none" style="pointer-events: visiblePainted;" /></g><g class="svg-layer" id="layer_5"><path d="M 1983.00,1076.00 L 1927.00,1077.00 L 1923.00,1107.00 L 1917.00,1127.00 L 1908.00,1144.00 L 1889.00,1164.00 L 1863.00,1177.00 L 1830.00,1180.00 L 1806.00,1186.00 L 1786.00,1198.00 L 1775.00,1210.00 L 1764.00,1231.00 L 1761.00,1246.00 L 1761.00,1262.00 L 1763.00,1276.00 L 1780.00,1320.00 L 1784.00,1338.00 L 1784.00,1359.00 L 1777.00,1381.00 L 1764.00,1397.00 L 1750.00,1407.00 L 1725.00,1416.00 L 1691.00,1424.00 L 1669.00,1440.00 L 1663.00,1448.00 L 1656.00,1466.00 L 1654.00,1477.00 L 1654.00,1511.00 L 1650.00,1529.00 L 1645.00,1540.00 L 1624.00,1561.00 L 1578.00,1580.00 L 1561.00,1594.00 L 1548.00,1616.00 L 1544.00,1632.00 L 1544.00,1668.00 L 1745.00,1668.00 L 1983.00,1378.00 Z" fill="rgb(237,218,216)" shape-rendering="crispEdges" stroke="none" style="pointer-events: visiblePainted;" /></g><g class="svg-layer" id="layer_6"><path d="M 319.00,515.00 L 315.00,515.00 L 335.00,522.00 L 349.00,535.00 L 347.00,537.00 L 335.00,526.00 L 319.00,519.00 L 297.00,518.00 L 281.00,524.00 L 268.00,532.00 L 272.00,541.00 L 282.00,551.00 L 282.00,555.00 L 263.00,536.00 L 228.00,550.00 L 197.00,552.00 L 181.00,548.00 L 131.00,528.00 L 108.00,528.00 L 93.00,531.00 L 32.00,553.00 L 27.00,551.00 L 0.00,553.00 L 0.00,827.00 L 51.00,862.00 L 48.00,865.00 L 0.00,831.00 L 63.00,876.00 L 62.00,874.00 L 54.00,870.00 L 51.00,865.00 L 62.00,869.00 L 67.00,874.00 L 65.00,877.00 L 164.00,948.00 L 146.00,984.00 L 137.00,1015.00 L 133.00,1052.00 L 134.00,1100.00 L 135.00,1027.00 L 144.00,991.00 L 151.00,974.00 L 165.00,951.00 L 162.00,944.00 L 165.00,943.00 L 167.00,945.00 L 192.00,919.00 L 220.00,897.00 L 245.00,871.00 L 270.00,839.00 L 290.00,808.00 L 283.00,798.00 L 291.00,799.00 L 296.00,795.00 L 331.00,707.00 L 351.00,634.00 L 351.00,627.00 L 347.00,620.00 L 349.00,619.00 L 352.00,623.00 L 355.00,616.00 L 367.00,565.00 L 367.00,559.00 L 354.00,543.00 L 356.00,542.00 L 363.00,552.00 L 369.00,556.00 L 344.00,529.00 L 335.00,522.00 Z" fill="rgb(16,74,115)" shape-rendering="crispEdges" stroke="none" style="pointer-events: visiblePainted;" /></g><g class="svg-layer" id="layer_7"><path d="M 1920.00,1077.00 L 1766.00,1078.00 L 1760.00,1093.00 L 1646.00,1293.00 L 1643.00,1295.00 L 1616.00,1345.00 L 1605.00,1360.00 L 1604.00,1365.00 L 1525.00,1502.00 L 1323.00,1839.00 L 1337.00,1855.00 L 1390.00,1891.00 L 1418.00,1914.00 L 1430.00,1903.00 L 1517.00,1780.00 L 1523.00,1775.00 L 1540.00,1748.00 L 1595.00,1675.00 L 1541.00,1673.00 L 1539.00,1671.00 L 1542.00,1669.00 L 1542.00,1664.00 L 1538.00,1668.00 L 1538.00,1636.00 L 1542.00,1616.00 L 1550.00,1600.00 L 1570.00,1579.00 L 1583.00,1571.00 L 1619.00,1557.00 L 1633.00,1546.00 L 1639.00,1538.00 L 1647.00,1519.00 L 1650.00,1471.00 L 1654.00,1454.00 L 1668.00,1433.00 L 1678.00,1424.00 L 1693.00,1417.00 L 1732.00,1408.00 L 1751.00,1400.00 L 1765.00,1389.00 L 1775.00,1372.00 L 1778.00,1361.00 L 1777.00,1329.00 L 1757.00,1276.00 L 1756.00,1266.00 L 1757.00,1238.00 L 1760.00,1226.00 L 1768.00,1210.00 L 1779.00,1197.00 L 1799.00,1183.00 L 1822.00,1176.00 L 1867.00,1169.00 L 1877.00,1165.00 L 1893.00,1153.00 L 1906.00,1137.00 L 1915.00,1117.00 L 1919.00,1098.00 Z" fill="rgb(16,74,115)" shape-rendering="crispEdges" stroke="none" style="pointer-events: visiblePainted;" /></g><g class="svg-layer" id="layer_8"><path d="M 1203.00,1257.00 L 1160.00,1259.00 L 1114.00,1269.00 L 1069.00,1288.00 L 1036.00,1309.00 L 1006.00,1336.00 L 977.00,1374.00 L 957.00,1416.00 L 939.00,1479.00 L 918.00,1514.00 L 898.00,1533.00 L 880.00,1544.00 L 856.00,1552.00 L 820.00,1554.00 L 898.00,1650.00 L 967.00,1747.00 L 1048.00,1874.00 L 1106.00,1978.00 L 1093.00,1893.00 L 1081.00,1784.00 L 1079.00,1740.00 L 1083.00,1681.00 L 1095.00,1631.00 L 1119.00,1561.00 L 1138.00,1494.00 L 1168.00,1365.00 L 1189.00,1294.00 Z" fill="rgb(237,218,216)" shape-rendering="crispEdges" stroke="none" style="pointer-events: visiblePainted;" /></g><g class="svg-layer" id="layer_9"><path d="M 1755.00,0.00 L 1602.00,0.00 L 1530.00,255.00 L 1500.00,346.00 L 1456.00,494.00 L 1449.00,539.00 L 1449.00,571.00 L 1440.00,590.00 L 1437.00,604.00 L 1436.00,628.00 L 1421.00,659.00 L 1422.00,676.00 L 1429.00,698.00 L 1437.00,715.00 L 1462.00,755.00 L 1471.00,779.00 L 1475.00,802.00 L 1476.00,834.00 L 1523.00,703.00 Z" fill="rgb(116,73,141)" shape-rendering="crispEdges" stroke="none" style="pointer-events: visiblePainted;" /></g><g class="svg-layer" id="layer_10"><path d="M 706.00,856.00 L 727.00,942.00 L 729.00,972.00 L 744.00,1001.00 L 786.00,1053.00 L 834.00,1101.00 L 887.00,1140.00 L 927.00,1163.00 L 963.00,1181.00 L 1027.00,1204.00 L 1060.00,1213.00 L 1145.00,1227.00 L 1232.00,1233.00 L 1335.00,1233.00 L 1365.00,1229.00 L 1401.00,1217.00 L 1362.00,1217.00 L 1325.00,1213.00 L 1299.00,1207.00 L 1260.00,1191.00 L 1232.00,1172.00 L 1198.00,1139.00 L 1160.00,1088.00 L 1141.00,1053.00 L 1125.00,1038.00 L 1089.00,1021.00 L 1034.00,1010.00 L 973.00,992.00 L 939.00,976.00 L 914.00,960.00 L 889.00,940.00 L 854.00,902.00 L 834.00,873.00 L 816.00,839.00 L 803.00,807.00 L 791.00,764.00 L 788.00,766.00 L 776.00,798.00 L 760.00,823.00 L 736.00,845.00 L 720.00,853.00 Z" fill="rgb(224,66,97)" shape-rendering="crispEdges" stroke="none" style="pointer-events: visiblePainted;" /></g><g class="svg-layer" id="layer_11"><path d="M 424.00,1521.00 L 425.00,1525.00 L 481.00,1570.00 L 541.00,1624.00 L 645.00,1732.00 L 736.00,1844.00 L 807.00,1945.00 L 831.00,1983.00 L 1007.00,1983.00 L 969.00,1921.00 L 908.00,1832.00 L 848.00,1751.00 L 798.00,1689.00 L 750.00,1634.00 L 687.00,1569.00 L 639.00,1525.00 L 594.00,1488.00 L 563.00,1466.00 L 537.00,1482.00 L 479.00,1508.00 L 441.00,1519.00 Z" fill="rgb(35,157,202)" shape-rendering="crispEdges" stroke="none" style="pointer-events: visiblePainted;" /></g><g class="svg-layer" id="layer_12"><path d="M 0.00,167.00 L 0.00,548.00 L 29.00,546.00 L 86.00,527.00 L 112.00,522.00 L 139.00,525.00 L 192.00,546.00 L 215.00,547.00 L 239.00,541.00 L 289.00,515.00 L 313.00,512.00 L 322.00,514.00 L 341.00,525.00 L 368.00,554.00 L 378.00,490.00 L 378.00,459.00 L 366.00,431.00 L 351.00,412.00 L 334.00,400.00 L 321.00,395.00 L 276.00,389.00 L 258.00,384.00 L 237.00,374.00 L 222.00,363.00 L 202.00,342.00 L 189.00,322.00 L 157.00,247.00 L 142.00,219.00 L 129.00,202.00 L 109.00,184.00 L 93.00,175.00 L 61.00,164.00 L 26.00,163.00 Z" fill="rgb(237,218,216)" shape-rendering="crispEdges" stroke="none" style="pointer-events: visiblePainted;" /></g><g class="svg-layer" id="layer_13"><path d="M 253.00,1586.00 L 363.00,1673.00 L 422.00,1726.00 L 484.00,1788.00 L 566.00,1882.00 L 643.00,1983.00 L 826.00,1983.00 L 800.00,1942.00 L 736.00,1851.00 L 687.00,1788.00 L 637.00,1729.00 L 576.00,1664.00 L 479.00,1573.00 L 417.00,1524.00 L 370.00,1535.00 L 320.00,1552.00 L 281.00,1570.00 Z" fill="rgb(35,157,202)" shape-rendering="crispEdges" stroke="none" style="pointer-events: visiblePainted;" /></g><g class="svg-layer" id="layer_14"><path d="M 1983.00,1388.00 L 1945.00,1432.00 L 1830.00,1575.00 L 1778.00,1635.00 L 1765.00,1654.00 L 1702.00,1728.00 L 1496.00,1983.00 L 1645.00,1983.00 L 1666.00,1961.00 L 1685.00,1933.00 L 1713.00,1905.00 L 1715.00,1906.00 L 1706.00,1916.00 L 1709.00,1919.00 L 1718.00,1915.00 L 1719.00,1912.00 L 1722.00,1912.00 L 1722.00,1914.00 L 1733.00,1912.00 L 1725.00,1911.00 L 1734.00,1908.00 L 1782.00,1907.00 L 1809.00,1901.00 L 1841.00,1883.00 L 1898.00,1839.00 L 1926.00,1824.00 L 1910.00,1831.00 L 1888.00,1845.00 L 1841.00,1883.00 L 1815.00,1898.00 L 1786.00,1906.00 L 1750.00,1906.00 L 1728.00,1909.00 L 1714.00,1914.00 L 1712.00,1912.00 L 1983.00,1614.00 L 1882.00,1724.00 L 1880.00,1723.00 L 1983.00,1607.00 Z" fill="rgb(16,74,115)" shape-rendering="crispEdges" stroke="none" style="pointer-events: visiblePainted;" /></g><g class="svg-layer" id="layer_15"><path d="M 1050.00,381.00 L 1045.00,382.00 L 1016.00,433.00 L 990.00,468.00 L 971.00,489.00 L 970.00,494.00 L 935.00,525.00 L 864.00,580.00 L 844.00,600.00 L 841.00,607.00 L 830.00,618.00 L 825.00,630.00 L 819.00,637.00 L 820.00,639.00 L 809.00,669.00 L 805.00,699.00 L 803.00,701.00 L 795.00,744.00 L 795.00,756.00 L 798.00,762.00 L 798.00,778.00 L 805.00,792.00 L 805.00,798.00 L 816.00,827.00 L 830.00,856.00 L 848.00,885.00 L 857.00,893.00 L 856.00,895.00 L 862.00,904.00 L 864.00,903.00 L 865.00,907.00 L 899.00,941.00 L 913.00,949.00 L 924.00,960.00 L 974.00,987.00 L 1028.00,1003.00 L 1062.00,1007.00 L 1060.00,1009.00 L 1091.00,1015.00 L 1111.00,1023.00 L 1126.00,1032.00 L 1123.00,1028.00 L 1124.00,1026.00 L 1131.00,1030.00 L 1130.00,1025.00 L 1118.00,1000.00 L 1080.00,934.00 L 1024.00,858.00 L 993.00,824.00 L 968.00,790.00 L 948.00,756.00 L 929.00,715.00 L 913.00,672.00 L 904.00,641.00 L 898.00,601.00 L 900.00,598.00 L 920.00,592.00 L 921.00,589.00 L 933.00,585.00 L 952.00,572.00 L 1010.00,509.00 L 1041.00,486.00 L 1085.00,471.00 L 1092.00,472.00 L 1145.00,459.00 L 1165.00,447.00 L 1176.00,434.00 L 1183.00,419.00 L 1184.00,409.00 L 1159.00,399.00 L 1117.00,388.00 Z" fill="rgb(224,66,97)" shape-rendering="crispEdges" stroke="none" style="pointer-events: visiblePainted;" /></g><g class="svg-layer" id="layer_16"><path d="M 1983.00,135.00 L 1951.00,134.00 L 1931.00,138.00 L 1911.00,146.00 L 1898.00,154.00 L 1879.00,171.00 L 1863.00,194.00 L 1855.00,210.00 L 1835.00,265.00 L 1817.00,305.00 L 1801.00,328.00 L 1781.00,347.00 L 1765.00,355.00 L 1747.00,360.00 L 1717.00,363.00 L 1695.00,368.00 L 1672.00,380.00 L 1660.00,392.00 L 1649.00,408.00 L 1641.00,425.00 L 1632.00,460.00 L 1632.00,507.00 L 1640.00,543.00 L 1650.00,520.00 L 1662.00,504.00 L 1677.00,493.00 L 1696.00,486.00 L 1717.00,486.00 L 1729.00,490.00 L 1767.00,518.00 L 1779.00,524.00 L 1789.00,526.00 L 1809.00,524.00 L 1862.00,501.00 L 1879.00,497.00 L 1906.00,497.00 L 1933.00,503.00 L 1966.00,514.00 L 1983.00,516.00 Z" fill="rgb(193,125,169)" shape-rendering="crispEdges" stroke="none" style="pointer-events: visiblePainted;" /></g><g class="svg-layer" id="layer_17"><path d="M 1434.00,729.00 L 1429.00,730.00 L 1450.00,751.00 L 1459.00,771.00 L 1459.00,794.00 L 1452.00,810.00 L 1436.00,833.00 L 1406.00,841.00 L 1397.00,855.00 L 1399.00,869.00 L 1409.00,891.00 L 1441.00,923.00 L 1449.00,937.00 L 1455.00,956.00 L 1457.00,973.00 L 1451.00,997.00 L 1445.00,1007.00 L 1428.00,1020.00 L 1407.00,1026.00 L 1395.00,1027.00 L 1359.00,1026.00 L 1336.00,1022.00 L 1284.00,1008.00 L 1205.00,976.00 L 1204.00,972.00 L 1234.00,967.00 L 1258.00,959.00 L 1328.00,917.00 L 1343.00,911.00 L 1362.00,908.00 L 1367.00,891.00 L 1367.00,871.00 L 1358.00,857.00 L 1351.00,853.00 L 1331.00,853.00 L 1292.00,867.00 L 1277.00,867.00 L 1263.00,862.00 L 1248.00,846.00 L 1240.00,827.00 L 1239.00,816.00 L 1214.00,858.00 L 1192.00,1019.00 L 1190.00,1022.00 L 1188.00,1063.00 L 1192.00,1103.00 L 1204.00,1134.00 L 1224.00,1158.00 L 1249.00,1178.00 L 1266.00,1188.00 L 1300.00,1202.00 L 1332.00,1209.00 L 1395.00,1211.00 L 1417.00,1208.00 L 1433.00,1196.00 L 1443.00,1178.00 L 1450.00,1149.00 L 1448.00,1113.00 L 1440.00,1101.00 L 1418.00,1090.00 L 1410.00,1088.00 L 1376.00,1088.00 L 1365.00,1090.00 L 1334.00,1100.00 L 1299.00,1118.00 L 1296.00,1117.00 L 1306.00,1108.00 L 1327.00,1097.00 L 1352.00,1088.00 L 1383.00,1082.00 L 1417.00,1084.00 L 1431.00,1089.00 L 1445.00,1100.00 L 1448.00,1100.00 L 1449.00,1076.00 L 1465.00,957.00 L 1471.00,816.00 L 1467.00,788.00 L 1457.00,758.00 L 1444.00,737.00 Z" fill="rgb(237,218,216)" shape-rendering="crispEdges" stroke="none" style="pointer-events: visiblePainted;" /></g><g class="svg-layer" id="layer_18"><path d="M 647.00,1387.00 L 608.00,1432.00 L 569.00,1464.00 L 631.00,1512.00 L 691.00,1567.00 L 749.00,1627.00 L 805.00,1691.00 L 869.00,1771.00 L 923.00,1845.00 L 1013.00,1983.00 L 1103.00,1983.00 L 1023.00,1842.00 L 945.00,1723.00 L 889.00,1646.00 L 824.00,1565.00 L 773.00,1507.00 L 688.00,1422.00 Z" fill="rgb(224,66,97)" shape-rendering="crispEdges" stroke="none" style="pointer-events: visiblePainted;" /></g><g class="svg-layer" id="layer_19"><path d="M 1256.00,558.00 L 1254.00,563.00 L 1252.00,563.00 L 1252.00,559.00 L 1251.00,563.00 L 1256.00,580.00 L 1257.00,619.00 L 1254.00,624.00 L 1251.00,647.00 L 1249.00,649.00 L 1220.00,647.00 L 1217.00,650.00 L 1191.00,656.00 L 1127.00,664.00 L 1116.00,691.00 L 1103.00,707.00 L 1080.00,723.00 L 1043.00,737.00 L 1025.00,740.00 L 995.00,740.00 L 971.00,736.00 L 940.00,725.00 L 961.00,768.00 L 974.00,789.00 L 998.00,822.00 L 1018.00,844.00 L 1040.00,859.00 L 1076.00,873.00 L 1112.00,879.00 L 1139.00,879.00 L 1170.00,873.00 L 1186.00,867.00 L 1204.00,856.00 L 1218.00,842.00 L 1228.00,826.00 L 1239.00,798.00 L 1250.00,778.00 L 1286.00,746.00 L 1296.00,726.00 L 1294.00,695.00 L 1264.00,619.00 L 1264.00,594.00 L 1270.00,574.00 L 1261.00,563.00 L 1259.00,566.00 L 1256.00,564.00 Z" fill="rgb(193,125,169)" shape-rendering="crispEdges" stroke="none" style="pointer-events: visiblePainted;" /></g><g class="svg-layer" id="layer_20"><path d="M 1195.00,260.00 L 1174.00,280.00 L 1158.00,309.00 L 1152.00,337.00 L 1156.00,377.00 L 1162.00,394.00 L 1193.00,407.00 L 1219.00,423.00 L 1238.00,438.00 L 1256.00,456.00 L 1266.00,470.00 L 1278.00,497.00 L 1279.00,517.00 L 1274.00,538.00 L 1264.00,556.00 L 1277.00,577.00 L 1314.00,620.00 L 1356.00,586.00 L 1392.00,568.00 L 1415.00,568.00 L 1428.00,574.00 L 1438.00,583.00 L 1444.00,565.00 L 1443.00,555.00 L 1440.00,550.00 L 1426.00,542.00 L 1406.00,541.00 L 1349.00,553.00 L 1320.00,588.00 L 1316.00,586.00 L 1333.00,567.00 L 1347.00,546.00 L 1358.00,512.00 L 1366.00,499.00 L 1373.00,493.00 L 1388.00,487.00 L 1411.00,486.00 L 1422.00,488.00 L 1420.00,479.00 L 1388.00,422.00 L 1336.00,341.00 L 1304.00,300.00 L 1278.00,274.00 L 1253.00,254.00 L 1232.00,242.00 L 1216.00,247.00 Z" fill="rgb(237,218,216)" shape-rendering="crispEdges" stroke="none" style="pointer-events: visiblePainted;" /></g><g class="svg-layer" id="layer_21"><path d="M 1983.00,728.00 L 1971.00,733.00 L 1953.00,745.00 L 1941.00,756.00 L 1927.00,775.00 L 1916.00,799.00 L 1894.00,864.00 L 1877.00,895.00 L 1862.00,915.00 L 1840.00,936.00 L 1811.00,954.00 L 1774.00,971.00 L 1751.00,990.00 L 1741.00,1006.00 L 1731.00,1029.00 L 1724.00,1054.00 L 1724.00,1071.00 L 1975.00,1071.00 L 1983.00,1069.00 Z" fill="rgb(35,157,202)" shape-rendering="crispEdges" stroke="none" style="pointer-events: visiblePainted;" /></g><g class="svg-layer" id="layer_22"><path d="M 541.00,733.00 L 529.00,742.00 L 516.00,760.00 L 505.00,797.00 L 505.00,818.00 L 509.00,847.00 L 517.00,875.00 L 531.00,907.00 L 551.00,939.00 L 566.00,958.00 L 594.00,987.00 L 610.00,1000.00 L 637.00,1017.00 L 657.00,1026.00 L 672.00,1030.00 L 691.00,1030.00 L 699.00,1027.00 L 711.00,1017.00 L 717.00,1008.00 L 724.00,982.00 L 720.00,934.00 L 700.00,857.00 L 675.00,844.00 L 662.00,831.00 L 652.00,816.00 L 646.00,845.00 L 647.00,860.00 L 653.00,871.00 L 671.00,888.00 L 682.00,895.00 L 698.00,915.00 L 700.00,930.00 L 693.00,941.00 L 678.00,943.00 L 654.00,926.00 L 641.00,920.00 L 599.00,921.00 L 588.00,917.00 L 579.00,908.00 L 571.00,893.00 L 568.00,881.00 L 569.00,864.00 L 572.00,856.00 L 578.00,849.00 L 607.00,828.00 L 615.00,819.00 L 622.00,807.00 L 624.00,790.00 L 621.00,779.00 L 611.00,764.00 L 594.00,751.00 L 576.00,745.00 L 565.00,745.00 L 557.00,748.00 L 548.00,758.00 L 544.00,776.00 L 547.00,815.00 L 543.00,840.00 L 543.00,869.00 L 549.00,894.00 L 561.00,919.00 L 581.00,942.00 L 603.00,956.00 L 619.00,960.00 L 630.00,966.00 L 626.00,969.00 L 613.00,965.00 L 581.00,948.00 L 569.00,937.00 L 551.00,913.00 L 544.00,896.00 L 539.00,870.00 L 540.00,764.00 L 549.00,748.00 L 562.00,741.00 L 581.00,741.00 L 591.00,744.00 L 607.00,754.00 L 623.00,773.00 L 629.00,795.00 L 625.00,812.00 L 618.00,823.00 L 605.00,835.00 L 587.00,847.00 L 576.00,861.00 L 573.00,872.00 L 575.00,889.00 L 584.00,907.00 L 593.00,914.00 L 600.00,916.00 L 643.00,915.00 L 653.00,919.00 L 674.00,937.00 L 682.00,940.00 L 691.00,936.00 L 694.00,930.00 L 694.00,920.00 L 688.00,909.00 L 672.00,893.00 L 658.00,883.00 L 644.00,866.00 L 641.00,844.00 L 648.00,805.00 L 638.00,781.00 L 623.00,756.00 L 606.00,739.00 L 585.00,728.00 L 562.00,726.00 Z" fill="rgb(224,66,97)" shape-rendering="crispEdges" stroke="none" style="pointer-events: visiblePainted;" /></g><g class="svg-layer" id="layer_23"><path d="M 0.00,832.00 L 0.00,1105.00 L 123.00,1180.00 L 128.00,1176.00 L 133.00,1146.00 L 132.00,1052.00 L 136.00,1015.00 L 145.00,984.00 L 163.00,948.00 Z" fill="rgb(35,157,202)" shape-rendering="crispEdges" stroke="none" style="pointer-events: visiblePainted;" /></g><g class="svg-layer" id="layer_24"><path d="M 1740.00,1674.00 L 1604.00,1674.00 L 1601.00,1676.00 L 1526.00,1777.00 L 1467.00,1862.00 L 1423.00,1919.00 L 1445.00,1947.00 L 1458.00,1970.00 L 1462.00,1983.00 L 1491.00,1982.00 Z" fill="rgb(116,73,141)" shape-rendering="crispEdges" stroke="none" style="pointer-events: visiblePainted;" /></g><g class="svg-layer" id="layer_25"><path d="M 372.00,22.00 L 372.00,26.00 L 492.00,221.00 L 498.00,218.00 L 540.00,180.00 L 593.00,147.00 L 638.00,127.00 L 679.00,115.00 L 683.00,112.00 L 657.00,74.00 L 633.00,48.00 L 602.00,26.00 L 575.00,16.00 L 559.00,13.00 L 524.00,14.00 L 445.00,26.00 Z" fill="rgb(35,157,202)" shape-rendering="crispEdges" stroke="none" style="pointer-events: visiblePainted;" /></g><g class="svg-layer" id="layer_26"><path d="M 1983.00,1818.00 L 1960.00,1819.00 L 1923.00,1830.00 L 1892.00,1848.00 L 1834.00,1893.00 L 1803.00,1908.00 L 1782.00,1912.00 L 1732.00,1913.00 L 1710.00,1920.00 L 1698.00,1928.00 L 1685.00,1941.00 L 1670.00,1963.00 L 1662.00,1983.00 L 1983.00,1983.00 Z" fill="rgb(237,218,216)" shape-rendering="crispEdges" stroke="none" style="pointer-events: visiblePainted;" /></g><g class="svg-layer" id="layer_27"><path d="M 1274.00,580.00 L 1269.00,598.00 L 1270.00,618.00 L 1276.00,638.00 L 1298.00,689.00 L 1302.00,707.00 L 1302.00,724.00 L 1298.00,737.00 L 1292.00,747.00 L 1263.00,772.00 L 1248.00,791.00 L 1244.00,803.00 L 1244.00,817.00 L 1248.00,834.00 L 1252.00,843.00 L 1263.00,855.00 L 1269.00,859.00 L 1281.00,862.00 L 1303.00,859.00 L 1333.00,847.00 L 1351.00,847.00 L 1356.00,849.00 L 1367.00,859.00 L 1373.00,874.00 L 1373.00,890.00 L 1367.00,909.00 L 1380.00,915.00 L 1395.00,916.00 L 1419.00,909.00 L 1406.00,895.00 L 1397.00,879.00 L 1393.00,867.00 L 1392.00,854.00 L 1397.00,842.00 L 1408.00,831.00 L 1440.00,811.00 L 1451.00,801.00 L 1455.00,786.00 L 1451.00,765.00 L 1440.00,749.00 L 1393.00,706.00 L 1318.00,631.00 Z" fill="rgb(237,218,216)" shape-rendering="crispEdges" stroke="none" style="pointer-events: visiblePainted;" /></g><g class="svg-layer" id="layer_28"><path d="M 1983.00,1615.00 L 1741.00,1883.00 L 1718.00,1906.00 L 1714.00,1913.00 L 1741.00,1906.00 L 1786.00,1905.00 L 1815.00,1897.00 L 1841.00,1882.00 L 1873.00,1855.00 L 1910.00,1830.00 L 1948.00,1815.00 L 1983.00,1811.00 Z" fill="rgb(35,157,202)" shape-rendering="crispEdges" stroke="none" style="pointer-events: visiblePainted;" /></g><g class="svg-layer" id="layer_29"><path d="M 1114.00,1594.00 L 1092.00,1664.00 L 1085.00,1720.00 L 1087.00,1791.00 L 1103.00,1927.00 L 1113.00,1983.00 L 1190.00,1983.00 L 1182.00,1905.00 L 1180.00,1903.00 L 1177.00,1874.00 L 1154.00,1744.00 L 1140.00,1680.00 Z" fill="rgb(193,125,169)" shape-rendering="crispEdges" stroke="none" style="pointer-events: visiblePainted;" /></g><g class="svg-layer" id="layer_30"><path d="M 1339.00,126.00 L 1334.00,136.00 L 1336.00,149.00 L 1332.00,157.00 L 1321.00,162.00 L 1317.00,161.00 L 1332.00,179.00 L 1352.00,210.00 L 1371.00,250.00 L 1387.00,299.00 L 1394.00,345.00 L 1422.00,341.00 L 1457.00,341.00 L 1498.00,333.00 L 1511.00,296.00 L 1529.00,232.00 L 1510.00,234.00 L 1479.00,233.00 L 1466.00,230.00 L 1449.00,222.00 L 1425.00,200.00 L 1416.00,188.00 L 1400.00,154.00 L 1364.00,141.00 L 1362.00,138.00 Z" fill="rgb(35,157,202)" shape-rendering="crispEdges" stroke="none" style="pointer-events: visiblePainted;" /></g><g class="svg-layer" id="layer_31"><path d="M 985.00,0.00 L 986.00,78.00 L 1101.00,76.00 L 1170.00,82.00 L 1218.00,95.00 L 1251.00,110.00 L 1286.00,132.00 L 1315.00,159.00 L 1319.00,156.00 L 1328.00,157.00 L 1331.00,154.00 L 1334.00,146.00 L 1332.00,134.00 L 1335.00,131.00 L 1332.00,124.00 L 1335.00,122.00 L 1292.00,82.00 L 1266.00,65.00 L 1237.00,56.00 L 1186.00,53.00 L 1160.00,47.00 L 1143.00,38.00 L 1126.00,25.00 L 1106.00,0.00 Z" fill="rgb(116,73,141)" shape-rendering="crispEdges" stroke="none" style="pointer-events: visiblePainted;" /></g><g class="svg-layer" id="layer_32"><path d="M 1244.00,0.00 L 1242.00,51.00 L 1269.00,61.00 L 1281.00,68.00 L 1284.00,72.00 L 1280.00,73.00 L 1277.00,71.00 L 1283.00,74.00 L 1285.00,72.00 L 1293.00,79.00 L 1292.00,81.00 L 1285.00,76.00 L 1336.00,122.00 L 1333.00,124.00 L 1335.00,129.00 L 1341.00,125.00 L 1364.00,140.00 L 1400.00,153.00 L 1415.00,184.00 L 1406.00,168.00 L 1401.00,153.00 L 1397.00,153.00 L 1394.00,150.00 L 1399.00,150.00 L 1403.00,147.00 L 1407.00,123.00 L 1410.00,118.00 L 1439.00,0.00 Z" fill="rgb(16,74,115)" shape-rendering="crispEdges" stroke="none" style="pointer-events: visiblePainted;" /></g><g class="svg-layer" id="layer_33"><path d="M 1034.00,861.00 L 1099.00,956.00 L 1130.00,1013.00 L 1162.00,1081.00 L 1182.00,1113.00 L 1196.00,1128.00 L 1191.00,1119.00 L 1186.00,1098.00 L 1183.00,1046.00 L 1186.00,1007.00 L 1208.00,860.00 L 1176.00,876.00 L 1160.00,881.00 L 1138.00,884.00 L 1108.00,884.00 L 1083.00,880.00 L 1060.00,873.00 Z" fill="rgb(116,73,141)" shape-rendering="crispEdges" stroke="none" style="pointer-events: visiblePainted;" /></g><g class="svg-layer" id="layer_34"><path d="M 905.00,611.00 L 906.00,626.00 L 915.00,662.00 L 937.00,717.00 L 969.00,730.00 L 989.00,734.00 L 1016.00,735.00 L 1044.00,731.00 L 1063.00,725.00 L 1082.00,716.00 L 1097.00,705.00 L 1110.00,690.00 L 1119.00,668.00 L 1122.00,666.00 L 1120.00,664.00 L 1084.00,662.00 L 1053.00,655.00 L 1022.00,641.00 L 1020.00,636.00 L 1035.00,617.00 L 996.00,634.00 L 964.00,636.00 L 932.00,626.00 Z" fill="rgb(116,73,141)" shape-rendering="crispEdges" stroke="none" style="pointer-events: visiblePainted;" /></g><g class="svg-layer" id="layer_35"><path d="M 0.00,1113.00 L 1.00,1317.00 L 46.00,1293.00 L 83.00,1260.00 L 109.00,1223.00 L 124.00,1188.00 L 71.00,1153.00 L 12.00,1118.00 Z" fill="rgb(35,157,202)" shape-rendering="crispEdges" stroke="none" style="pointer-events: visiblePainted;" /></g><g class="svg-layer" id="layer_36"><path d="M 1221.00,239.00 L 1197.00,234.00 L 1179.00,234.00 L 1150.00,241.00 L 1121.00,257.00 L 1103.00,273.00 L 1084.00,298.00 L 1064.00,335.00 L 1047.00,375.00 L 1103.00,379.00 L 1155.00,391.00 L 1148.00,361.00 L 1148.00,327.00 L 1154.00,305.00 L 1167.00,282.00 L 1185.00,262.00 L 1204.00,248.00 Z" fill="rgb(193,125,169)" shape-rendering="crispEdges" stroke="none" style="pointer-events: visiblePainted;" /></g><g class="svg-layer" id="layer_37"><path d="M 1143.00,536.00 L 1111.00,530.00 L 1080.00,531.00 L 1054.00,536.00 L 1027.00,546.00 L 956.00,585.00 L 905.00,604.00 L 922.00,616.00 L 947.00,627.00 L 964.00,631.00 L 994.00,630.00 L 1012.00,621.00 L 1043.00,592.00 L 1071.00,573.00 L 1110.00,557.00 L 1138.00,551.00 Z" fill="rgb(35,157,202)" shape-rendering="crispEdges" stroke="none" style="pointer-events: visiblePainted;" /></g><g class="svg-layer" id="layer_38"><path d="M 1451.00,970.00 L 1445.00,941.00 L 1436.00,925.00 L 1427.00,915.00 L 1422.00,914.00 L 1403.00,921.00 L 1381.00,921.00 L 1364.00,914.00 L 1356.00,914.00 L 1323.00,926.00 L 1264.00,962.00 L 1237.00,972.00 L 1220.00,975.00 L 1224.00,978.00 L 1243.00,983.00 L 1311.00,963.00 L 1348.00,958.00 L 1384.00,959.00 L 1409.00,964.00 L 1431.00,972.00 L 1446.00,981.00 L 1449.00,981.00 Z" fill="rgb(224,66,97)" shape-rendering="crispEdges" stroke="none" style="pointer-events: visiblePainted;" /></g><g class="svg-layer" id="layer_39"><path d="M 1251.00,987.00 L 1312.00,1010.00 L 1342.00,1017.00 L 1374.00,1021.00 L 1410.00,1020.00 L 1426.00,1015.00 L 1443.00,1001.00 L 1448.00,990.00 L 1436.00,982.00 L 1412.00,972.00 L 1395.00,968.00 L 1362.00,965.00 L 1326.00,967.00 Z" fill="rgb(237,218,216)" shape-rendering="crispEdges" stroke="none" style="pointer-events: visiblePainted;" /></g><g class="svg-layer" id="layer_40"><path d="M 1140.00,535.00 L 1144.00,536.00 L 1141.00,541.00 L 1140.00,550.00 L 1134.00,552.00 L 1154.00,557.00 L 1164.00,568.00 L 1187.00,601.00 L 1220.00,640.00 L 1219.00,648.00 L 1220.00,646.00 L 1249.00,648.00 L 1253.00,624.00 L 1256.00,619.00 L 1255.00,580.00 L 1250.00,563.00 L 1251.00,555.00 L 1255.00,554.00 L 1236.00,555.00 L 1214.00,552.00 L 1152.00,536.00 Z" fill="rgb(116,73,141)" shape-rendering="crispEdges" stroke="none" style="pointer-events: visiblePainted;" /></g><g class="svg-layer" id="layer_41"><path d="M 1219.00,645.00 L 1219.00,641.00 L 1195.00,614.00 L 1159.00,564.00 L 1153.00,558.00 L 1138.00,554.00 L 1108.00,560.00 L 1076.00,572.00 L 1044.00,594.00 L 1010.00,625.00 L 997.00,631.00 L 1009.00,628.00 L 1038.00,614.00 L 1039.00,616.00 L 1021.00,637.00 L 1023.00,640.00 L 1047.00,651.00 L 1067.00,657.00 L 1123.00,664.00 L 1191.00,654.00 L 1214.00,649.00 Z" fill="rgb(17,7,37)" shape-rendering="crispEdges" stroke="none" style="pointer-events: visiblePainted;" /></g><g class="svg-layer" id="layer_42"><path d="M 1217.00,1237.00 L 1249.00,1277.00 L 1265.00,1310.00 L 1271.00,1340.00 L 1271.00,1366.00 L 1267.00,1391.00 L 1269.00,1410.00 L 1325.00,1239.00 Z" fill="rgb(116,73,141)" shape-rendering="crispEdges" stroke="none" style="pointer-events: visiblePainted;" /></g><g class="svg-layer" id="layer_43"><path d="M 1107.00,476.00 L 1195.00,480.00 L 1235.00,487.00 L 1251.00,496.00 L 1263.00,513.00 L 1263.00,529.00 L 1258.00,542.00 L 1258.00,551.00 L 1261.00,551.00 L 1270.00,533.00 L 1274.00,515.00 L 1274.00,504.00 L 1264.00,476.00 L 1237.00,444.00 L 1212.00,424.00 L 1191.00,411.00 L 1181.00,438.00 L 1165.00,456.00 L 1144.00,468.00 Z" fill="rgb(237,218,216)" shape-rendering="crispEdges" stroke="none" style="pointer-events: visiblePainted;" /></g><g class="svg-layer" id="layer_44"><path d="M 1027.00,636.00 L 1037.00,642.00 L 1064.00,652.00 L 1098.00,658.00 L 1154.00,656.00 L 1194.00,650.00 L 1214.00,644.00 L 1206.00,633.00 L 1177.00,605.00 L 1178.00,623.00 L 1172.00,636.00 L 1166.00,643.00 L 1148.00,652.00 L 1134.00,652.00 L 1121.00,648.00 L 1109.00,638.00 L 1100.00,623.00 L 1096.00,607.00 L 1098.00,586.00 L 1088.00,588.00 L 1060.00,604.00 L 1044.00,617.00 Z" fill="rgb(237,218,216)" shape-rendering="crispEdges" stroke="none" style="pointer-events: visiblePainted;" /></g><g class="svg-layer" id="layer_45"><path d="M 1113.00,0.00 L 1133.00,24.00 L 1163.00,42.00 L 1196.00,48.00 L 1235.00,49.00 L 1237.00,47.00 L 1239.00,0.00 Z" fill="rgb(35,157,202)" shape-rendering="crispEdges" stroke="none" style="pointer-events: visiblePainted;" /></g><g class="svg-layer" id="layer_46"><path d="M 1325.00,628.00 L 1325.00,631.00 L 1347.00,652.00 L 1391.00,658.00 L 1414.00,665.00 L 1413.00,663.00 L 1392.00,659.00 L 1387.00,656.00 L 1388.00,654.00 L 1396.00,654.00 L 1408.00,658.00 L 1416.00,656.00 L 1414.00,652.00 L 1393.00,650.00 L 1376.00,634.00 L 1370.00,618.00 L 1370.00,593.00 L 1341.00,612.00 Z" fill="rgb(237,218,216)" shape-rendering="crispEdges" stroke="none" style="pointer-events: visiblePainted;" /></g><g class="svg-layer" id="layer_47"><path d="M 371.00,1534.00 L 417.00,1523.00 L 479.00,1572.00 L 557.00,1644.00 L 638.00,1729.00 L 705.00,1809.00 L 760.00,1883.00 L 826.00,1982.00 L 830.00,1983.00 L 806.00,1945.00 L 735.00,1844.00 L 644.00,1732.00 L 541.00,1625.00 L 481.00,1571.00 L 422.00,1523.00 L 427.00,1519.00 L 453.00,1515.00 L 499.00,1499.00 L 537.00,1481.00 L 562.00,1466.00 L 523.00,1488.00 L 463.00,1512.00 L 435.00,1519.00 L 427.00,1519.00 L 422.00,1521.00 L 421.00,1526.00 L 417.00,1523.00 L 410.00,1523.00 Z" fill="rgb(16,74,115)" shape-rendering="crispEdges" stroke="none" style="pointer-events: visiblePainted;" /></g><g class="svg-layer" id="layer_48"><path d="M 1390.00,816.00 L 1387.00,810.00 L 1378.00,803.00 L 1364.00,799.00 L 1348.00,799.00 L 1332.00,803.00 L 1312.00,813.00 L 1300.00,826.00 L 1298.00,836.00 L 1304.00,841.00 L 1315.00,840.00 L 1324.00,835.00 L 1338.00,821.00 L 1347.00,821.00 L 1370.00,828.00 L 1383.00,827.00 L 1388.00,824.00 Z" fill="rgb(17,7,37)" shape-rendering="crispEdges" stroke="none" style="pointer-events: visiblePainted;" /></g><g class="svg-layer" id="layer_49"><path d="M 1353.00,659.00 L 1417.00,722.00 L 1423.00,726.00 L 1430.00,722.00 L 1435.00,722.00 L 1424.00,699.00 L 1416.00,671.00 L 1379.00,662.00 Z" fill="rgb(237,218,216)" shape-rendering="crispEdges" stroke="none" style="pointer-events: visiblePainted;" /></g><g class="svg-layer" id="layer_50"><path d="M 1208.00,974.00 L 1281.00,1004.00 L 1327.00,1018.00 L 1364.00,1024.00 L 1404.00,1024.00 L 1415.00,1021.00 L 1380.00,1024.00 L 1328.00,1017.00 L 1269.00,998.00 L 1248.00,989.00 L 1246.00,986.00 L 1311.00,967.00 L 1342.00,962.00 L 1363.00,962.00 L 1397.00,966.00 L 1420.00,972.00 L 1447.00,985.00 L 1451.00,990.00 L 1454.00,968.00 L 1453.00,957.00 L 1445.00,934.00 L 1436.00,920.00 L 1416.00,902.00 L 1421.00,910.00 L 1403.00,917.00 L 1385.00,918.00 L 1366.00,911.00 L 1365.00,908.00 L 1371.00,887.00 L 1370.00,871.00 L 1366.00,861.00 L 1355.00,851.00 L 1334.00,849.00 L 1323.00,853.00 L 1336.00,850.00 L 1352.00,851.00 L 1360.00,856.00 L 1367.00,865.00 L 1370.00,874.00 L 1369.00,892.00 L 1366.00,906.00 L 1363.00,910.00 L 1332.00,918.00 L 1280.00,950.00 L 1254.00,963.00 L 1228.00,971.00 Z" fill="rgb(17,7,37)" shape-rendering="crispEdges" stroke="none" style="pointer-events: visiblePainted;" /></g><g class="svg-layer" id="layer_51"><path d="M 1883.00,6.00 L 1875.00,34.00 L 1861.00,45.00 L 1841.00,50.00 L 1860.00,52.00 L 1874.00,60.00 L 1879.00,69.00 L 1881.00,85.00 L 1884.00,72.00 L 1894.00,58.00 L 1907.00,52.00 L 1929.00,50.00 L 1906.00,46.00 L 1894.00,41.00 L 1884.00,23.00 Z" fill="rgb(237,218,216)" shape-rendering="crispEdges" stroke="none" style="pointer-events: visiblePainted;" /></g><g class="svg-layer" id="layer_52"><path d="M 982.00,1362.00 L 968.00,1383.00 L 956.00,1408.00 L 942.00,1459.00 L 932.00,1485.00 L 923.00,1501.00 L 914.00,1513.00 L 893.00,1532.00 L 864.00,1546.00 L 849.00,1549.00 L 815.00,1550.00 L 753.00,1481.00 L 697.00,1426.00 L 660.00,1395.00 L 704.00,1435.00 L 754.00,1485.00 L 827.00,1566.00 L 818.00,1555.00 L 819.00,1552.00 L 840.00,1552.00 L 869.00,1546.00 L 893.00,1534.00 L 918.00,1511.00 L 939.00,1473.00 L 959.00,1404.00 Z" fill="rgb(17,7,37)" shape-rendering="crispEdges" stroke="none" style="pointer-events: visiblePainted;" /></g></svg>