<?xml version="1.0" encoding="utf-8" ?>
<svg baseProfile="full" height="652" version="1.1" width="1159" xmlns="http://www.w3.org/2000/svg" xmlns:ev="http://www.w3.org/2001/xml-events" xmlns:xlink="http://www.w3.org/1999/xlink"><defs /><g id="layer_0"><path d="M 0.00,0.00 L 0.00,651.00 L 1158.00,651.00 L 1158.00,0.00 Z" fill="rgb(38,168,251)" shape-rendering="crispEdges" stroke="none" /></g><g id="layer_1"><path d="M 306.00,158.00 L 288.00,174.00 L 268.00,201.00 L 255.00,230.00 L 248.00,272.00 L 249.00,299.00 L 256.00,329.00 L 267.00,354.00 L 283.00,377.00 L 301.00,395.00 L 318.00,407.00 L 351.00,420.00 L 373.00,423.00 L 380.00,439.00 L 403.00,474.00 L 424.00,498.00 L 448.00,518.00 L 485.00,540.00 L 517.00,552.00 L 554.00,559.00 L 591.00,560.00 L 615.00,558.00 L 659.00,546.00 L 691.00,531.00 L 714.00,516.00 L 751.00,481.00 L 775.00,447.00 L 786.00,423.00 L 809.00,418.00 L 835.00,407.00 L 865.00,383.00 L 882.00,361.00 L 897.00,330.00 L 905.00,292.00 L 905.00,264.00 L 899.00,234.00 L 891.00,212.00 L 883.00,197.00 L 860.00,168.00 L 835.00,150.00 L 814.00,140.00 L 788.00,134.00 L 758.00,134.00 L 732.00,141.00 L 710.00,151.00 L 689.00,137.00 L 667.00,126.00 L 651.00,121.00 L 629.00,90.00 L 616.00,108.00 L 611.00,111.00 L 592.00,109.00 L 552.00,110.00 L 531.00,77.00 L 527.00,74.00 L 490.00,128.00 L 472.00,136.00 L 448.00,152.00 L 444.00,153.00 L 428.00,144.00 L 407.00,137.00 L 392.00,134.00 L 366.00,134.00 L 339.00,140.00 Z" fill="rgb(166,188,208)" shape-rendering="crispEdges" stroke="none" /></g><g id="layer_2"><path d="M 446.00,278.00 L 445.00,305.00 L 454.00,330.00 L 474.00,351.00 L 490.00,359.00 L 505.00,362.00 L 523.00,361.00 L 532.00,342.00 L 550.00,325.00 L 567.00,318.00 L 586.00,317.00 L 599.00,320.00 L 615.00,329.00 L 630.00,346.00 L 637.00,366.00 L 666.00,364.00 L 687.00,353.00 L 698.00,343.00 L 709.00,325.00 L 714.00,302.00 L 710.00,275.00 L 695.00,252.00 L 672.00,236.00 L 651.00,231.00 L 627.00,233.00 L 607.00,242.00 L 589.00,259.00 L 580.00,275.00 L 566.00,251.00 L 545.00,234.00 L 523.00,227.00 L 497.00,228.00 L 480.00,234.00 L 469.00,242.00 L 453.00,260.00 Z" fill="rgb(252,253,253)" shape-rendering="crispEdges" stroke="none" /></g><g id="layer_3"><path d="M 398.00,154.00 L 360.00,154.00 L 335.00,162.00 L 317.00,173.00 L 296.00,192.00 L 286.00,206.00 L 269.00,246.00 L 266.00,266.00 L 266.00,293.00 L 272.00,321.00 L 284.00,347.00 L 296.00,364.00 L 319.00,385.00 L 340.00,396.00 L 353.00,400.00 L 363.00,399.00 L 356.00,365.00 L 355.00,315.00 L 364.00,268.00 L 375.00,239.00 L 389.00,213.00 L 407.00,188.00 L 428.00,167.00 L 425.00,163.00 Z" fill="rgb(125,148,168)" shape-rendering="crispEdges" stroke="none" /></g><g id="layer_4"><path d="M 755.00,154.00 L 736.00,160.00 L 730.00,165.00 L 750.00,185.00 L 770.00,212.00 L 784.00,237.00 L 797.00,270.00 L 805.00,321.00 L 804.00,361.00 L 797.00,400.00 L 824.00,391.00 L 842.00,379.00 L 871.00,345.00 L 881.00,322.00 L 886.00,302.00 L 888.00,280.00 L 885.00,247.00 L 870.00,210.00 L 852.00,186.00 L 837.00,173.00 L 820.00,163.00 L 799.00,155.00 L 781.00,152.00 Z" fill="rgb(125,148,168)" shape-rendering="crispEdges" stroke="none" /></g><g id="layer_5"><path d="M 579.00,318.00 L 562.00,321.00 L 544.00,331.00 L 531.00,346.00 L 523.00,368.00 L 523.00,435.00 L 528.00,452.00 L 540.00,469.00 L 561.00,482.00 L 571.00,484.00 L 599.00,481.00 L 617.00,471.00 L 628.00,458.00 L 637.00,432.00 L 636.00,368.00 L 628.00,345.00 L 616.00,331.00 L 603.00,323.00 Z" fill="rgb(190,132,98)" shape-rendering="crispEdges" stroke="none" /></g><g id="layer_6"><path d="M 640.00,271.00 L 633.00,274.00 L 628.00,280.00 L 623.00,291.00 L 624.00,300.00 L 628.00,309.00 L 634.00,315.00 L 651.00,317.00 L 659.00,312.00 L 665.00,302.00 L 665.00,287.00 L 662.00,280.00 L 656.00,274.00 L 649.00,271.00 Z" fill="rgb(125,148,168)" shape-rendering="crispEdges" stroke="none" /></g><g id="layer_7"><path d="M 508.00,271.00 L 502.00,274.00 L 493.00,286.00 L 493.00,303.00 L 501.00,314.00 L 507.00,317.00 L 519.00,317.00 L 529.00,310.00 L 533.00,302.00 L 533.00,287.00 L 530.00,280.00 L 521.00,272.00 Z" fill="rgb(125,148,168)" shape-rendering="crispEdges" stroke="none" /></g></svg>