<?xml version="1.0" encoding="utf-8" ?>
<svg baseProfile="full" height="561" version="1.1" width="600" xmlns="http://www.w3.org/2000/svg" xmlns:ev="http://www.w3.org/2001/xml-events" xmlns:xlink="http://www.w3.org/1999/xlink"><defs /><g class="svg-layer" id="layer_0"><path d="M 0.00,51.00 L 0.00,560.00 L 599.00,560.00 L 599.00,51.00 L 576.00,105.00 L 549.00,146.00 L 513.00,183.00 L 475.00,209.00 L 485.00,249.00 L 486.00,291.00 L 478.00,331.00 L 465.00,362.00 L 449.00,387.00 L 423.00,415.00 L 404.00,430.00 L 379.00,444.00 L 380.00,468.00 L 508.00,515.00 L 400.00,560.00 L 395.00,558.00 L 334.00,474.00 L 334.00,459.00 L 308.00,462.00 L 268.00,459.00 L 267.00,476.00 L 205.00,560.00 L 113.00,524.00 L 95.00,515.00 L 101.00,511.00 L 221.00,468.00 L 223.00,446.00 L 201.00,434.00 L 177.00,416.00 L 153.00,391.00 L 135.00,364.00 L 119.00,325.00 L 113.00,293.00 L 112.00,270.00 L 114.00,248.00 L 124.00,209.00 L 100.00,194.00 L 80.00,178.00 L 46.00,141.00 L 24.00,107.00 L 8.00,74.00 Z" fill="rgb(254,254,254)" shape-rendering="crispEdges" stroke="none" style="pointer-events: visiblePainted;" /></g><g class="svg-layer" id="layer_1"><path d="M 1.00,50.00 L 25.00,106.00 L 50.00,144.00 L 82.00,178.00 L 101.00,193.00 L 126.00,208.00 L 115.00,252.00 L 115.00,296.00 L 120.00,322.00 L 128.00,346.00 L 150.00,385.00 L 180.00,417.00 L 209.00,437.00 L 247.00,453.00 L 286.00,460.00 L 313.00,460.00 L 335.00,457.00 L 378.00,443.00 L 415.00,420.00 L 448.00,386.00 L 470.00,348.00 L 478.00,325.00 L 484.00,294.00 L 484.00,254.00 L 473.00,208.00 L 512.00,182.00 L 544.00,150.00 L 572.00,109.00 L 586.00,81.00 L 598.00,50.00 L 420.00,127.00 L 417.00,126.00 L 417.00,105.00 L 411.00,79.00 L 401.00,58.00 L 392.00,45.00 L 379.00,31.00 L 360.00,17.00 L 341.00,8.00 L 324.00,3.00 L 288.00,1.00 L 267.00,5.00 L 239.00,17.00 L 221.00,30.00 L 203.00,50.00 L 191.00,71.00 L 182.00,103.00 L 181.00,127.00 Z" fill="rgb(0,0,0)" shape-rendering="crispEdges" stroke="none" style="pointer-events: visiblePainted;" /></g><g class="svg-layer" id="layer_2"><path d="M 283.00,213.00 L 261.00,218.00 L 239.00,228.00 L 223.00,239.00 L 205.00,257.00 L 194.00,273.00 L 182.00,302.00 L 178.00,327.00 L 179.00,350.00 L 185.00,375.00 L 196.00,398.00 L 206.00,412.00 L 226.00,431.00 L 252.00,446.00 L 270.00,452.00 L 287.00,455.00 L 312.00,455.00 L 336.00,450.00 L 359.00,440.00 L 380.00,425.00 L 395.00,409.00 L 405.00,394.00 L 416.00,368.00 L 420.00,348.00 L 420.00,319.00 L 415.00,296.00 L 406.00,275.00 L 393.00,256.00 L 376.00,239.00 L 360.00,228.00 L 334.00,217.00 L 305.00,212.00 Z" fill="rgb(254,254,254)" shape-rendering="crispEdges" stroke="none" style="pointer-events: visiblePainted;" /></g><g class="svg-layer" id="layer_3"><path d="M 309.00,0.00 L 331.00,3.00 L 354.00,12.00 L 375.00,26.00 L 393.00,44.00 L 405.00,62.00 L 414.00,83.00 L 419.00,108.00 L 419.00,125.00 L 599.00,48.00 L 599.00,0.00 Z" fill="rgb(254,254,254)" shape-rendering="crispEdges" stroke="none" style="pointer-events: visiblePainted;" /></g><g class="svg-layer" id="layer_4"><path d="M 0.00,48.00 L 180.00,125.00 L 180.00,106.00 L 185.00,82.00 L 196.00,58.00 L 211.00,38.00 L 230.00,21.00 L 251.00,9.00 L 276.00,1.00 L 290.00,0.00 L 0.00,0.00 Z" fill="rgb(254,254,254)" shape-rendering="crispEdges" stroke="none" style="pointer-events: visiblePainted;" /></g><g class="svg-layer" id="layer_5"><path d="M 353.00,79.00 L 320.00,71.00 L 282.00,71.00 L 255.00,76.00 L 238.00,85.00 L 299.00,205.00 L 304.00,199.00 L 361.00,85.00 Z" fill="rgb(249,139,2)" shape-rendering="crispEdges" stroke="none" style="pointer-events: visiblePainted;" /></g><g class="svg-layer" id="layer_6"><path d="M 336.00,459.00 L 337.00,476.00 L 397.00,557.00 L 502.00,515.00 L 379.00,470.00 L 377.00,466.00 L 377.00,446.00 Z" fill="rgb(249,139,2)" shape-rendering="crispEdges" stroke="none" style="pointer-events: visiblePainted;" /></g><g class="svg-layer" id="layer_7"><path d="M 266.00,459.00 L 225.00,448.00 L 223.00,470.00 L 116.00,508.00 L 99.00,516.00 L 202.00,557.00 L 208.00,553.00 L 265.00,475.00 Z" fill="rgb(249,139,2)" shape-rendering="crispEdges" stroke="none" style="pointer-events: visiblePainted;" /></g><g class="svg-layer" id="layer_8"><path d="M 264.00,22.00 L 257.00,25.00 L 250.00,32.00 L 247.00,39.00 L 247.00,50.00 L 250.00,57.00 L 257.00,64.00 L 264.00,67.00 L 275.00,67.00 L 282.00,64.00 L 289.00,57.00 L 292.00,50.00 L 292.00,39.00 L 289.00,32.00 L 282.00,25.00 L 275.00,22.00 Z" fill="rgb(254,254,254)" shape-rendering="crispEdges" stroke="none" style="pointer-events: visiblePainted;" /></g><g class="svg-layer" id="layer_9"><path d="M 326.00,37.00 L 318.00,45.00 L 318.00,57.00 L 327.00,65.00 L 339.00,64.00 L 346.00,55.00 L 346.00,46.00 L 337.00,37.00 Z" fill="rgb(254,254,254)" shape-rendering="crispEdges" stroke="none" style="pointer-events: visiblePainted;" /></g></svg>