<?xml version="1.0" encoding="utf-8" ?>
<svg baseProfile="full" height="334" version="1.1" width="480" xmlns="http://www.w3.org/2000/svg" xmlns:ev="http://www.w3.org/2001/xml-events" xmlns:xlink="http://www.w3.org/1999/xlink"><defs /><g class="svg-layer" id="layer_0"><path d="M 0.00,0.00 L 0.00,333.00 L 479.00,333.00 L 479.00,0.00 Z" fill="rgb(234,232,227)" shape-rendering="crispEdges" stroke="none" style="pointer-events: visiblePainted;" /></g><g class="svg-layer" id="layer_1"><path d="M 139.00,71.00 L 141.00,73.00 L 123.00,96.00 L 108.00,133.00 L 105.00,151.00 L 106.00,187.00 L 114.00,216.00 L 128.00,242.00 L 153.00,270.00 L 163.00,273.00 L 219.00,244.00 L 229.00,232.00 L 247.00,228.00 L 228.00,219.00 L 209.00,206.00 L 191.00,185.00 L 184.00,170.00 L 182.00,161.00 L 183.00,145.00 L 191.00,131.00 L 207.00,119.00 L 207.00,113.00 L 203.00,106.00 L 191.00,95.00 L 192.00,93.00 L 183.00,92.00 Z" fill="rgb(248,214,75)" shape-rendering="crispEdges" stroke="none" style="pointer-events: visiblePainted;" /></g><g class="svg-layer" id="layer_2"><path d="M 151.00,63.00 L 194.00,72.00 L 203.00,67.00 L 220.00,66.00 L 239.00,71.00 L 261.00,84.00 L 271.00,94.00 L 280.00,110.00 L 285.00,132.00 L 285.00,151.00 L 292.00,161.00 L 305.00,199.00 L 370.00,165.00 L 369.00,142.00 L 365.00,125.00 L 350.00,92.00 L 327.00,64.00 L 293.00,42.00 L 271.00,34.00 L 247.00,30.00 L 214.00,32.00 L 182.00,42.00 L 160.00,55.00 Z" fill="rgb(248,214,75)" shape-rendering="crispEdges" stroke="none" style="pointer-events: visiblePainted;" /></g><g class="svg-layer" id="layer_3"><path d="M 224.00,132.00 L 217.00,138.00 L 212.00,148.00 L 212.00,162.00 L 220.00,179.00 L 232.00,191.00 L 260.00,209.00 L 272.00,222.00 L 281.00,242.00 L 305.00,279.00 L 317.00,289.00 L 332.00,294.00 L 327.00,268.00 L 293.00,169.00 L 290.00,175.00 L 283.00,180.00 L 255.00,166.00 L 240.00,151.00 L 235.00,140.00 L 235.00,129.00 Z" fill="rgb(42,57,141)" shape-rendering="crispEdges" stroke="none" style="pointer-events: visiblePainted;" /></g><g class="svg-layer" id="layer_4"><path d="M 203.00,122.00 L 189.00,135.00 L 183.00,150.00 L 184.00,167.00 L 192.00,185.00 L 209.00,205.00 L 223.00,215.00 L 248.00,229.00 L 251.00,228.00 L 277.00,238.00 L 263.00,214.00 L 234.00,194.00 L 219.00,179.00 L 212.00,167.00 L 210.00,150.00 L 213.00,141.00 L 220.00,133.00 L 231.00,127.00 L 209.00,120.00 Z" fill="rgb(227,130,51)" shape-rendering="crispEdges" stroke="none" style="pointer-events: visiblePainted;" /></g><g class="svg-layer" id="layer_5"><path d="M 304.00,279.00 L 283.00,247.00 L 280.00,246.00 L 251.00,260.00 L 246.00,267.00 L 243.00,268.00 L 241.00,266.00 L 194.00,292.00 L 222.00,299.00 L 252.00,299.00 L 290.00,289.00 L 302.00,283.00 Z" fill="rgb(248,214,75)" shape-rendering="crispEdges" stroke="none" style="pointer-events: visiblePainted;" /></g><g class="svg-layer" id="layer_6"><path d="M 254.00,81.00 L 244.00,86.00 L 252.00,94.00 L 257.00,104.00 L 258.00,118.00 L 256.00,126.00 L 250.00,129.00 L 233.00,128.00 L 236.00,129.00 L 236.00,140.00 L 241.00,151.00 L 251.00,162.00 L 285.00,179.00 L 293.00,167.00 L 290.00,165.00 L 291.00,163.00 L 289.00,163.00 L 290.00,161.00 L 283.00,150.00 L 283.00,130.00 L 280.00,115.00 L 270.00,95.00 Z" fill="rgb(47,92,139)" shape-rendering="crispEdges" stroke="none" style="pointer-events: visiblePainted;" /></g><g class="svg-layer" id="layer_7"><path d="M 364.00,202.00 L 316.00,227.00 L 315.00,230.00 L 328.00,263.00 L 350.00,238.00 L 365.00,205.00 Z" fill="rgb(248,214,75)" shape-rendering="crispEdges" stroke="none" style="pointer-events: visiblePainted;" /></g><g class="svg-layer" id="layer_8"><path d="M 117.00,61.00 L 119.00,60.00 L 130.00,67.00 L 188.00,93.00 L 196.00,92.00 L 206.00,87.00 L 212.00,89.00 L 210.00,87.00 L 210.00,79.00 L 198.00,77.00 L 202.00,79.00 L 194.00,84.00 L 150.00,69.00 Z" fill="rgb(227,130,51)" shape-rendering="crispEdges" stroke="none" style="pointer-events: visiblePainted;" /></g><g class="svg-layer" id="layer_9"><path d="M 192.00,94.00 L 205.00,107.00 L 209.00,119.00 L 234.00,127.00 L 229.00,112.00 L 211.00,92.00 L 205.00,89.00 Z" fill="rgb(234,232,227)" shape-rendering="crispEdges" stroke="none" style="pointer-events: visiblePainted;" /></g><g class="svg-layer" id="layer_10"><path d="M 224.00,81.00 L 224.00,86.00 L 220.00,90.00 L 215.00,91.00 L 233.00,101.00 L 255.00,122.00 L 256.00,108.00 L 251.00,95.00 L 241.00,86.00 Z" fill="rgb(227,130,51)" shape-rendering="crispEdges" stroke="none" style="pointer-events: visiblePainted;" /></g><g class="svg-layer" id="layer_11"><path d="M 276.00,238.00 L 250.00,229.00 L 232.00,232.00 L 221.00,243.00 L 229.00,243.00 L 234.00,246.00 L 240.00,253.00 L 243.00,266.00 L 245.00,266.00 L 250.00,260.00 L 249.00,253.00 L 244.00,246.00 L 245.00,241.00 L 254.00,238.00 Z" fill="rgb(215,86,41)" shape-rendering="crispEdges" stroke="none" style="pointer-events: visiblePainted;" /></g><g class="svg-layer" id="layer_12"><path d="M 196.00,72.00 L 197.00,75.00 L 211.00,79.00 L 219.00,76.00 L 223.00,80.00 L 237.00,83.00 L 246.00,89.00 L 244.00,85.00 L 255.00,81.00 L 238.00,72.00 L 223.00,68.00 L 206.00,68.00 Z" fill="rgb(82,120,120)" shape-rendering="crispEdges" stroke="none" style="pointer-events: visiblePainted;" /></g><g class="svg-layer" id="layer_13"><path d="M 105.00,55.00 L 194.00,83.00 L 201.00,79.00 L 192.00,72.00 Z" fill="rgb(215,86,41)" shape-rendering="crispEdges" stroke="none" style="pointer-events: visiblePainted;" /></g><g class="svg-layer" id="layer_14"><path d="M 214.00,93.00 L 230.00,111.00 L 236.00,127.00 L 250.00,128.00 L 255.00,126.00 L 240.00,108.00 L 221.00,95.00 Z" fill="rgb(42,57,141)" shape-rendering="crispEdges" stroke="none" style="pointer-events: visiblePainted;" /></g><g class="svg-layer" id="layer_15"><path d="M 245.00,243.00 L 252.00,258.00 L 281.00,244.00 L 279.00,240.00 L 251.00,240.00 Z" fill="rgb(234,232,227)" shape-rendering="crispEdges" stroke="none" style="pointer-events: visiblePainted;" /></g><g class="svg-layer" id="layer_16"><path d="M 294.00,288.00 L 260.00,299.00 L 223.00,300.00 L 260.00,299.00 Z" fill="rgb(234,214,146)" shape-rendering="crispEdges" stroke="none" style="pointer-events: visiblePainted;" /></g><g class="svg-layer" id="layer_17"><path d="M 216.00,79.00 L 213.00,81.00 L 213.00,85.00 L 217.00,88.00 L 221.00,82.00 Z" fill="rgb(27,26,30)" shape-rendering="crispEdges" stroke="none" style="pointer-events: visiblePainted;" /></g><g class="svg-layer" id="layer_18"><path d="M 243.00,29.00 L 212.00,31.00 L 188.00,39.00 L 214.00,31.00 Z" fill="rgb(234,214,146)" shape-rendering="crispEdges" stroke="none" style="pointer-events: visiblePainted;" /></g></svg>